<svg xmlns="http://www.w3.org/2000/svg" version="1.1" xmlns:xlink="http://www.w3.org/1999/xlink" xmlns:svgjs="http://svgjs.com/svgjs" width="512" height="512" x="0" y="0" viewBox="0 0 510.066 510.066" style="enable-background:new 0 0 512 512" xml:space="preserve" class=""><g><path d="M60.066 150c24.813 0 45-20.187 45-45V59.965C117.609 69.4 133.198 75 150.066 75V45c-24.813 0-45-20.187-45-45h-30v62.58a44.79 44.79 0 0 0-15-2.58c-24.813 0-45 20.186-45 45s20.187 45 45 45zm0-60c8.271 0 15 6.729 15 15s-6.729 15-15 15-15-6.728-15-15 6.729-15 15-15zM360.066 422.58a44.79 44.79 0 0 0-15-2.58c-24.813 0-45 20.187-45 45 0 24.814 20.187 45 45 45s45-20.186 45-45v-93.288l90-22.5v43.368a44.79 44.79 0 0 0-15-2.58c-24.813 0-45 20.187-45 45 0 24.814 20.187 45 45 45s45-20.186 45-45V310.788l-150 37.5zm105 27.42c-8.271 0-15-6.728-15-15 0-8.271 6.729-15 15-15s15 6.729 15 15c0 8.272-6.729 15-15 15zm-120 30c-8.271 0-15-6.728-15-15 0-8.271 6.729-15 15-15s15 6.729 15 15c0 8.272-6.729 15-15 15zM184.41 304.384l42.42-42.42 21.209 21.21-42.42 42.42z" fill="#000000" data-original="#000000" class=""></path><path d="M510.066 135c0-74.439-60.561-135-135-135-72.108 0-131.193 56.827-134.823 128.049L14.67 404.261a64.579 64.579 0 0 0 4.368 86.769c23.488 23.488 60.782 25.588 86.768 4.367l276.211-225.573c71.222-3.631 128.049-62.716 128.049-134.824zm-30 0c0 11.307-1.804 22.199-5.126 32.412-10.413 3.375-21.272 5.088-32.374 5.088-57.897 0-105-47.103-105-105 0-11.102 1.713-21.961 5.088-32.374A104.616 104.616 0 0 1 375.066 30c57.897 0 105 47.103 105 105zM308.23 54.08c-8.369 84.94 62.993 156.107 147.757 147.758C436.712 225.133 407.593 240 375.066 240c-57.897 0-105-47.103-105-105 0-32.527 14.868-61.645 38.164-80.92zm31.799 211.299L170.284 404.005l-64.223-64.223 138.626-169.745c12.462 46.328 49.014 82.881 95.342 95.342zM86.83 472.16a34.668 34.668 0 0 1-46.579-2.344 34.667 34.667 0 0 1-2.344-46.579l49.083-60.102 59.941 59.942z" fill="#000000" data-original="#000000" class=""></path></g></svg>