<svg xmlns="http://www.w3.org/2000/svg" version="1.1" xmlns:xlink="http://www.w3.org/1999/xlink" xmlns:svgjs="http://svgjs.com/svgjs" width="512" height="512" x="0" y="0" viewBox="0 0 512 512" style="enable-background:new 0 0 512 512" xml:space="preserve" class=""><g><path d="M501.333 277.333h-416V74.667A10.66 10.66 0 0 0 74.667 64h-64A10.66 10.66 0 0 0 0 74.667v362.667A10.66 10.66 0 0 0 10.667 448h64a10.66 10.66 0 0 0 10.667-10.667v-74.667h341.333v74.667A10.66 10.66 0 0 0 437.334 448h64a10.66 10.66 0 0 0 10.667-10.667V288a10.662 10.662 0 0 0-10.668-10.667zm-10.666 149.334H448V352a10.66 10.66 0 0 0-10.667-10.667H74.667A10.66 10.66 0 0 0 64 352v74.667H21.333V85.333H64V288a10.66 10.66 0 0 0 10.667 10.667h416v128z" fill="#000000" data-original="#000000"></path><path d="M170.667 256c35.292 0 64-28.708 64-64s-28.708-64-64-64-64 28.708-64 64 28.708 64 64 64zm0-106.667c23.531 0 42.667 19.135 42.667 42.667s-19.135 42.667-42.667 42.667S128 215.531 128 192s19.135-42.667 42.667-42.667zM266.667 256h234.667a10.66 10.66 0 0 0 10.667-10.667C512 180.635 459.365 128 394.667 128h-128A10.66 10.66 0 0 0 256 138.667v106.667A10.66 10.66 0 0 0 266.667 256zm10.666-106.667h117.333c49.333 0 90.083 37.396 95.406 85.333h-212.74v-85.333z" fill="#000000" data-original="#000000"></path></g></svg>