<svg xmlns="http://www.w3.org/2000/svg" version="1.1" xmlns:xlink="http://www.w3.org/1999/xlink" xmlns:svgjs="http://svgjs.com/svgjs" width="512" height="512" x="0" y="0" viewBox="0 0 511 511.998" style="enable-background:new 0 0 512 512" xml:space="preserve" class=""><g><path d="M349.379 60.727C311.605 22.407 261.195.847 207.44.023c-54.609-.82-106.437 20.09-145.863 58.934a7.502 7.502 0 0 0 10.527 10.691c36.543-36 84.555-55.406 135.106-54.62 49.793.761 96.488 20.734 131.48 56.234 35.032 35.535 54.32 82.59 54.32 132.496 0 44.64-15.878 87.957-44.714 121.976-.149.176-.29.356-.418.54l-17.82 22.3a7.5 7.5 0 0 0 1.18 10.543 7.497 7.497 0 0 0 10.547-1.176l18.112-22.671.153-.2c30.933-36.668 47.965-83.28 47.965-131.312 0-53.871-20.825-104.668-58.637-143.031zM322.008 370.672a7.496 7.496 0 0 0-10.543 1.176l-99.477 124.504c-.41.515-.933.636-1.3.644-.38.004-.891-.09-1.325-.586L63.31 329.29a235.26 235.26 0 0 1-2.633-3.017l-.242-.277c-.067-.09-.141-.18-.215-.266-28.836-34.015-44.715-77.332-44.715-121.972 0-38.582 11.824-75.809 34.2-107.66 2.378-3.391 1.562-8.07-1.829-10.45a7.498 7.498 0 0 0-10.45 1.825C13.27 121.863.5 162.07.5 203.758c0 48.035 17.031 94.648 47.973 131.316.113.153.23.297.355.442l.496.566c.918 1.07 1.848 2.133 2.735 3.133L198.063 506.28A16.688 16.688 0 0 0 210.648 512c.122 0 .247-.004.372-.008a16.668 16.668 0 0 0 12.69-6.277l99.478-124.5a7.5 7.5 0 0 0-1.18-10.543zm0 0" fill="#000000" data-original="#000000" class=""></path><path d="M106.223 115.48a7.5 7.5 0 0 0-7.5 7.504V256a7.5 7.5 0 0 0 7.5 7.504h28.343A7.504 7.504 0 0 0 142.07 256v-18.492h12.328a7.503 7.503 0 1 0 0-15.004H142.07v-13.34h134.711v13.34H182.75a7.503 7.503 0 1 0 0 15.004h94.031V256a7.504 7.504 0 0 0 7.504 7.504h28.34a7.504 7.504 0 0 0 7.504-7.504v-63.824c0-11.953-9.723-21.676-21.672-21.676-9.129 0-16.95 5.672-20.14 13.676-.512-.485-1.024-.973-1.547-1.442a109.818 109.818 0 0 0-18.996-13.746 110.073 110.073 0 0 0-54.54-14.492c-9.64 0-17.484 7.844-17.484 17.484v22.18h-6.969a27.149 27.149 0 0 0 2.953-12.328c0-15.074-12.261-27.336-27.336-27.336-4.433 0-8.62 1.07-12.328 2.953v-6.12c0-19.767-16.082-35.849-35.847-35.849zm20.84 133.016h-13.336V131.883c7.796 3.02 13.335 10.597 13.335 19.445zm164.722-56.32c0-3.68 2.992-6.668 6.672-6.668a6.674 6.674 0 0 1 6.668 6.668v56.32h-13.34zm-91.031-20.2a2.483 2.483 0 0 1 2.48-2.476 95.012 95.012 0 0 1 55.403 17.86 95.507 95.507 0 0 1 8.09 6.519l.3.281h-66.27v-22.183zm-46.356-2.476c6.801 0 12.332 5.531 12.332 12.332 0 6.797-5.53 12.328-12.332 12.328-6.796 0-12.328-5.531-12.328-12.328 0-6.8 5.532-12.332 12.328-12.332zm0 0" fill="#000000" data-original="#000000" class=""></path></g></svg>