<svg xmlns="http://www.w3.org/2000/svg" version="1.1" xmlns:xlink="http://www.w3.org/1999/xlink" xmlns:svgjs="http://svgjs.com/svgjs" width="512" height="512" x="0" y="0" viewBox="0 0 480 480" style="enable-background:new 0 0 512 512" xml:space="preserve" class=""><g><path d="m441.2 148.161-83.144-83.152c-44.508-44.774-114.345-52.125-167.2-17.6A24 24 0 0 0 168 30.265H24c-13.255 0-24 10.745-24 24v128c0 13.255 10.745 24 24 24h24v200a8 8 0 0 0 2.344 5.656l24 24 16 16a8 8 0 0 0 11.312 0l40-40a8 8 0 0 0 2.344-5.656v-8a8 8 0 0 0-2.344-5.656l-18.344-18.344 18.344-18.344a8 8 0 0 0 2.344-5.656v-24a8 8 0 0 0-2.344-5.656L120 298.953v-17.376l21.656-21.656a8 8 0 0 0 2.344-5.656v-20.688l109.888 109.896c51.73 51.725 135.596 51.721 187.321-.009A132.457 132.457 0 0 0 480 249.817v-8a131.567 131.567 0 0 0-38.8-93.656zM128 250.953l-21.656 21.656a8 8 0 0 0-2.344 5.656v24a8 8 0 0 0 2.344 5.656L128 329.577v17.376l-21.656 21.656a8 8 0 0 0 0 11.312L128 401.577v1.376l-32 32-8-8V222.265a8 8 0 0 0-16 0v188.688l-8-8V206.265h64v44.688zm8-60.688H24a8 8 0 0 1-8-8v-128a8 8 0 0 1 8-8h144a8 8 0 0 1 8 8v40.696l-16.296-3.624C158.229 74.913 144.49 62.314 128 62.265H64c-17.673 0-32 14.327-32 32s14.327 32 32 32h64a32 32 0 0 0 29.232-19.088L176 111.345v70.92a8 8 0 0 1-8 8h-32zm-2.022-88.256c.095.023.19.044.286.064l6.704 1.488A16.002 16.002 0 0 1 128 110.265H64c-8.837 0-16-7.163-16-16s7.163-16 16-16h64a16 16 0 0 1 14.448 9.24l-4.712-1.048a8 8 0 1 0-3.758 15.552zM464 249.817c-.003 64.317-52.145 116.453-116.462 116.45a116.459 116.459 0 0 1-82.338-34.106L144 210.953v-4.688h24c13.255 0 24-10.745 24-24v-44.448a31.675 31.675 0 0 0 16 4.448c17.673 0 32-14.327 32-32s-14.327-32-32-32a31.675 31.675 0 0 0-16 4.448V66.265c46.739-36.138 113.071-31.831 154.744 10.048l83.144 83.16A115.67 115.67 0 0 1 464 241.817v8zm-254.272-147.36h.008l-13.464-2.992c5.971-6.514 16.092-6.954 22.606-.983 6.514 5.971 6.954 16.092.983 22.606-5.971 6.514-16.092 6.954-22.606.983a16 16 0 0 1-4.455-7.006l13.44 2.984a8.15 8.15 0 0 0 1.76.216 8 8 0 0 0 1.728-15.808z" fill="#000000" data-original="#000000" class=""></path><path d="m405.656 216.609-88-88a8 8 0 0 0-11.312 11.312l38.344 38.344L276 246.953l-38.344-38.344a8 8 0 0 0-11.312 11.312l88 88a8 8 0 0 0 11.312-.196 8 8 0 0 0 0-11.116l-38.344-38.344L356 189.577l38.344 38.344a8 8 0 0 0 11.312-.196 8 8 0 0 0 0-11.116z" fill="#000000" data-original="#000000" class=""></path></g></svg>