<svg xmlns="http://www.w3.org/2000/svg" version="1.1" xmlns:xlink="http://www.w3.org/1999/xlink" xmlns:svgjs="http://svgjs.com/svgjs" width="512" height="512" x="0" y="0" viewBox="0 0 479.998 479.998" style="enable-background:new 0 0 512 512" xml:space="preserve" class=""><g><path d="m326.199 266.228-144.96-144.96c-11.419-11.42-30.615-8.548-38.198 5.763a1498.323 1498.323 0 0 0-22.351 43.923c-2.16 4.426.159 9.74 4.872 11.167l2.626.794a15.697 15.697 0 0 1 10.5 10.499l7.258 23.994a31.666 31.666 0 0 0 21.181 21.181l23.994 7.259a15.695 15.695 0 0 1 10.499 10.499l7.259 23.994a31.662 31.662 0 0 0 21.181 21.181l5.091 1.54a8 8 0 0 0 9.974-5.341 8 8 0 0 0-5.341-9.974l-5.091-1.54a15.696 15.696 0 0 1-10.5-10.5l-7.259-23.993a31.656 31.656 0 0 0-21.181-21.181l-23.994-7.259a15.697 15.697 0 0 1-10.5-10.499l-7.258-23.994a31.66 31.66 0 0 0-15.089-18.624 1483.602 1483.602 0 0 1 18.266-35.635c2.533-4.781 8.935-5.751 12.747-1.94l144.96 144.96c3.812 3.811 2.84 10.213-1.94 12.746-45.381 24.043-91.695 45.519-138.473 64.277l-6.248-1.89a15.695 15.695 0 0 1-10.499-10.499l-7.259-23.994a31.662 31.662 0 0 0-21.181-21.181l-20.501-6.202a8 8 0 1 0-4.633 15.315l20.501 6.202a15.696 15.696 0 0 1 10.5 10.5l7.259 23.993a31.66 31.66 0 0 0 11.071 15.998 1355.007 1355.007 0 0 1-74.885 26.172c-12.396 3.921-24.03-7.719-20.107-20.109 16.517-52.164 36.674-104.501 59.912-155.556a8 8 0 0 0-3.967-10.595 7.998 7.998 0 0 0-10.595 3.967c-23.503 51.638-43.893 104.58-60.603 157.355a31.885 31.885 0 0 0 3.063 26.111c-11.501 12.966-15.743 24.332-12.926 34.608 5.386 19.653 34.024 26.977 64.344 34.731 20.058 5.129 40.799 10.434 50.555 18.633a8 8 0 0 0 10.293-12.249c-12.55-10.547-35.089-16.311-56.885-21.885-22.254-5.691-49.949-12.773-52.878-23.458-1.216-4.435 1.929-11.114 8.897-19.121a31.881 31.881 0 0 0 25.726 2.822c77.149-24.428 157.518-57.69 237.009-99.805 14.301-7.577 17.194-26.77 5.764-38.2zM237.467 135.737a7.976 7.976 0 0 0 5.657-2.343c15.251-15.25 26.528-32.835 32.613-50.853 5.901-17.475 6.339-34.051 1.23-46.675-5.772-14.265-18.388-22.599-34.611-22.865-4.423-.051-8.058 3.45-8.13 7.868a8 8 0 0 0 7.868 8.13c9.909.162 16.651 4.492 20.041 12.868 6.967 17.218-1.294 51.182-30.326 80.213-5.053 5.054-1.405 13.657 5.658 13.657zM274.908 129.442c-5.056 5.056-1.405 13.657 5.657 13.657a7.974 7.974 0 0 0 5.657-2.343l44.901-44.901c27.814-27.813 37.284-65.449 9.842-93.453A8 8 0 1 0 329.538 13.6c22.338 22.794 9.621 51.591-9.729 70.941zM445.067 106.5c-27.976-27.413-65.597-18.014-93.454 9.843l-44.901 44.901a8 8 0 1 0 11.314 11.313l44.901-44.901c19.349-19.35 48.147-32.064 70.94-9.729a7.999 7.999 0 0 0 11.313-.115 7.998 7.998 0 0 0-.113-11.312zM411.602 170.499c-12.625-5.108-29.2-4.672-46.676 1.23-18.018 6.085-35.603 17.362-50.854 32.613-5.056 5.056-1.405 13.657 5.657 13.657a7.974 7.974 0 0 0 5.657-2.343c29.031-29.033 62.996-37.292 80.213-30.325 8.376 3.389 12.706 10.132 12.868 20.041a8 8 0 0 0 7.996 7.869 8 8 0 0 0 8.002-8.131c-.265-16.223-8.599-28.839-22.863-34.611zM142.467 51h9v9a8 8 0 0 0 16 0v-9h9a8 8 0 0 0 0-16h-9v-9a8 8 0 0 0-16 0v9h-9a8 8 0 0 0 0 16zM411.467 259h-9v-9a8 8 0 0 0-16 0v9h-9a8 8 0 0 0 0 16h9v9a8 8 0 0 0 16 0v-9h9a8 8 0 0 0 0-16zM373.467 335h-9v-9a8 8 0 0 0-16 0v9h-9a8 8 0 0 0 0 16h9v9a8 8 0 0 0 16 0v-9h9a8 8 0 0 0 0-16z" fill="#000000" data-original="#000000" class=""></path></g></svg>