<svg xmlns="http://www.w3.org/2000/svg" version="1.1" xmlns:xlink="http://www.w3.org/1999/xlink" xmlns:svgjs="http://svgjs.com/svgjs" width="512" height="512" x="0" y="0" viewBox="0 0 32 32" style="enable-background:new 0 0 512 512" xml:space="preserve" class=""><g><path fill="#000000" fill-rule="evenodd" d="M10 5a3 3 0 0 0-3 3v2a1 1 0 1 1-2 0V8a5 5 0 0 1 5-5h2a1 1 0 1 1 0 2zm12 22a3 3 0 0 0 3-3v-2a1 1 0 1 1 2 0v2a5 5 0 0 1-5 5h-2a1 1 0 1 1 0-2zm3-19a3 3 0 0 0-3-3h-2a1 1 0 1 1 0-2h2a5 5 0 0 1 5 5v2a1 1 0 1 1-2 0zM10 27a3 3 0 0 1-3-3v-2a1 1 0 1 0-2 0v2a5 5 0 0 0 5 5h2a1 1 0 1 0 0-2zM4 15a1 1 0 1 0 0 2h24a1 1 0 1 0 0-2z" clip-rule="evenodd" data-original="#000000" class=""></path></g></svg>