<svg xmlns="http://www.w3.org/2000/svg" version="1.1" xmlns:xlink="http://www.w3.org/1999/xlink" xmlns:svgjs="http://svgjs.com/svgjs" width="512" height="512" x="0" y="0" viewBox="0 0 609.342 609.342" style="enable-background:new 0 0 512 512" xml:space="preserve" class=""><g><path d="M297.233 391.968h-13.894v13.316h-9.379v-13.316h-13.894v13.316h-12.39v-13.316h-13.894v13.316h-12.389v-13.316h-13.895v13.316h-10.421v13.894h10.421v12.621h13.895v-12.621h12.389v12.621h13.894v-12.621h12.39v12.621h13.894v-12.621h9.379v12.621h13.894v-12.621h11.579v-13.894h-11.579z" fill="#000000" data-original="#000000" class=""></path><path d="M542.702 396.832c-6.021-3.242-12.505-5.789-19.105-7.642 17.136-10.884 32.189-24.547 45.041-40.757 34.041-42.725 47.704-97.956 37.283-151.565-8.337-43.536-32.073-82.672-66.693-110.345l-.116-.116s-.116 0-.116-.116c-35.431-28.252-79.893-42.61-125.05-40.41h-.116c-53.494 2.663-103.282 28.136-136.629 69.935-.695.926-1.389 1.853-2.084 2.663-11-8.221-22.81-15.052-35.315-20.379-23.736-10.073-49.904-14.821-75.725-13.547-18.642.926-36.82 4.747-54.188 11.463-.116 0-.116 0-.232.116a171.894 171.894 0 0 0-72.135 53.146c-9.842 12.505-17.947 26.052-23.968 40.41 0 .116-.116.116-.116.232-.232.463-.347.926-.463 1.389C.586 221.298-3.119 254.529 2.67 287.181c1.389 7.989 3.358 15.747 5.789 23.273 0 .116 0 .116.116.232 0 .116 0 .116.116.232a171.324 171.324 0 0 0 46.894 72.83c-6.947 3.242-13.431 7.295-19.336 12.273l-.116.116s-.116 0-.116.116c-20.263 16.905-31.841 41.683-31.841 68.083 0 26.399 11.579 51.178 31.841 67.967l.232.232c15.863 13.2 35.894 20.378 56.504 20.378 20.842 0 40.641-7.179 56.504-20.378l.347-.347c1.621-1.389 3.126-2.663 4.631-4.168 2.432-2.432 4.747-4.863 6.947-7.526 2.084.926 4.053 1.853 6.6 2.895 30.452 12.968 62.062 19.568 94.019 19.568 26.168 0 52.336-4.284 77.577-12.737.116 0 .232 0 .232-.116 19.452-6.484 37.862-15.284 54.767-26.052h.232c6.6-4.284 12.852-8.684 18.758-13.431 3.589 20.379 14.242 38.904 30.452 52.452 15.863 13.316 36.01 20.61 56.851 20.61 23.042 0 44.925-8.8 61.599-24.894 17.484-16.905 27.094-39.483 27.094-63.799s-9.61-46.894-27.094-63.799c-5.904-5.791-12.504-10.539-19.567-14.359zm-130.724 76.535c-4.516 4.053-9.263 7.874-14.358 11.579V339.864c26.747 19.684 45.736 43.652 50.252 63.683-1.389 1.042-2.779 2.084-4.053 3.126-19.915 16.674-31.378 40.873-31.841 66.694zm-266.889 43.999c-3.242-3.126-6.137-6.6-8.684-10.189l8.684-5.905-7.874-11.463-7.874 5.326c-2.084-4.631-3.821-9.61-4.979-14.589l10.189-2.432-3.242-13.547-8.8 2.084c0-.811-.116-1.737-.116-2.547 0-2.895.232-5.789.463-8.684l8.337 1.968 3.242-13.547-8.337-2.084a65.796 65.796 0 0 1 4.516-11.116l6.716 4.516 7.874-11.463-7.179-4.863c2.2-2.895 4.516-5.558 7.179-8.105 8.568 8.452 14.937 18.642 18.526 29.641.116.579.347 1.158.579 1.621 2.084 7.063 3.242 14.358 3.242 22-.115 20.263-7.989 39.136-22.462 53.378zm9.147-117.177c-1.505-1.389-3.01-2.779-4.631-4.168-.116-.116-.232-.232-.347-.232-7.526-6.253-16.094-11.231-25.126-14.705v-40.641c11.926-8.916 25.126-16.789 39.368-23.389v93.44c-2.78-3.473-5.79-6.947-9.264-10.305zM20.85 303.391a170.154 170.154 0 0 1-4.516-18.757c-4.979-27.789-2.316-55.925 7.063-81.861l37.862 19.452 7.526 64.146a5.9 5.9 0 0 0-1.968 2.432l-14.358 29.294zm142.881-169.859 57.778-3.589 44.231 46.546-17.715 47.473-58.357 7.063-44.694-47.704zm107.334-.579c17.484 14.01 31.841 31.494 42.031 51.178l-35.315-15.052-44.578-46.894 6.253-8.916c11.231 5.326 21.767 11.926 31.609 19.684zM413.252 233.34 358.6 301.77c-5.905-2.547-12.042-4.979-18.179-7.063 1.853-8.221 3.126-16.442 3.705-24.778.116-1.274.232-2.432.232-3.705.463-9.379.232-18.873-.811-28.252 13.084-9.031 25.01-19.684 35.547-31.957zm8.915 108.724c-8.221-7.526-17.6-14.589-27.789-21.189-7.295-4.747-15.052-9.031-22.81-13.084l52.567-65.883 31.147 24.894c-16.557 22.463-27.788 48.052-33.115 75.262zM277.665 184.247l43.536 18.526c2.779 7.758 5.095 15.863 6.6 24.084 2.432 12.389 3.242 25.126 2.663 37.631l-37.399 15.168-32.305-50.136zm63.451 38.325a161.93 161.93 0 0 0-7.989-27.442c-.232-.695-.579-1.505-.811-2.2-6.6-16.673-15.979-32.305-27.442-46.083l63.336 50.483c-8.104 9.379-17.252 17.832-27.094 25.242zm-205.869-29.063 43.073 45.967-30.452 53.841-65.535-11-7.063-60.441zM78.859 295.865l68.199 11.463 1.158 1.968c-12.621 6.484-24.431 14.01-35.199 22.347-14.821 11.463-27.094 23.968-36.01 36.82l-13.779-40.641zm31.378 56.041v25.242c-5.674-1.158-11.579-1.737-17.6-1.737-1.274 0-2.547 0-3.821.116 5.79-8.105 12.969-15.979 21.421-23.621zm57.662-51.757c-2.432.926-4.747 1.968-7.063 3.01l-1.274-2.2 31.726-56.041 58.241-7.063 28.368 44.115c-5.326-.347-10.768-.579-16.094-.579-32.074.001-63.684 6.253-93.904 18.758zm161.06-20.031c-.463 3.474-1.158 6.947-1.853 10.421-4.863-1.389-9.842-2.547-14.705-3.705zm15.4 30.8a239.806 239.806 0 0 1 39.368 19.568v163.723a229.889 229.889 0 0 1-39.368 19.336zm119.955 159.207c.347-3.589 1.158-8.221 2.084-13.547 2.663-16.094 6.021-35.431 3.01-49.673 9.726-4.4 20.379-6.831 31.147-6.831 10.421 0 20.842 2.2 30.22 6.368-3.589 14.473.232 34.041 3.474 50.252 1.042 5.326 1.968 9.958 2.432 13.547.926 7.526-2.547 13.2-5.674 16.789-6.253 7.179-16.673 11.579-26.978 11.579h-7.063c-10.189 0-20.379-4.4-26.631-11.347-3.126-3.59-6.832-9.495-6.021-17.137zm36.704-83.946h-.347c-14.01 0-28.02 3.358-40.41 9.726-4.168-13.547-13.2-28.02-25.82-41.799 3.937-28.368 14.821-55.346 31.841-78.504l87.303 69.588c-14.936 17.021-32.536 30.8-52.567 40.989zm61.02-51.873-87.188-69.704c30.105-34.736 72.714-56.041 118.682-59.167a172.809 172.809 0 0 1-31.494 128.871zm28.715-142.533c-49.094 3.821-94.598 26.863-126.787 64.262L432.82 231.14l103.166-129.334c27.21 23.505 46.315 54.999 54.767 89.967zm-65.651-98.651L421.936 222.456l-34.273-27.326c28.715-38.904 41.22-87.535 34.852-135.471 36.82-.115 72.83 11.579 102.587 33.463zM408.62 60.239c6.253 44.578-5.095 89.967-31.726 126.208l-84.293-67.272c29.411-33.926 71.094-55.115 116.019-58.936zM164.657 98.564c20.842-1.042 42.031 2.2 61.599 9.263l-5.789 8.337-60.209 3.705-30.22-15.747a159.935 159.935 0 0 1 34.619-5.558zm-116.25 59.515c16.789-21.073 38.789-37.515 63.567-47.704l38.21 19.915-18.873 49.673-63.451 30.105-39.253-20.148a158.955 158.955 0 0 1 19.8-31.841zm-20.61 163.838 22.347 10.305 13.431 39.947c-15.168-14.242-27.326-31.263-35.778-50.252zm-9.842 142.071c0-20.147 8.105-39.252 22.347-53.262 3.01 3.01 5.789 6.137 8.221 9.61l-4.863 3.358 7.874 11.463 4.168-2.895c1.505 3.242 2.779 6.716 3.821 10.189l-5.558 1.274 3.242 13.547 5.095-1.158c.232 2.663.463 5.326.463 7.989v1.737l-5.442-1.274-3.242 13.547 7.063 1.621c-1.042 4.632-2.432 9.263-4.284 13.663l-5.21-3.589-7.874 11.463 6.368 4.4c-2.779 4.168-6.137 8.105-9.726 11.694-14.358-14.009-22.463-33.114-22.463-53.377zm33.231 62.178a83.532 83.532 0 0 0 10.421-12.737l7.526 5.095 7.874-11.463-8.452-5.789c2.663-5.905 4.747-12.042 6.137-18.41l9.379 2.2 3.242-13.547-10.652-2.547c.116-1.621.116-3.358.116-4.979 0-3.705-.232-7.526-.695-11.116l11.231-2.663-3.242-13.547-10.884 2.547c-1.505-5.095-3.474-10.073-5.789-14.821l9.61-6.6-7.874-11.463-9.031 6.137a96.502 96.502 0 0 0-8.916-10.652c12.273-8.221 26.631-12.621 41.452-12.621 14.937 0 29.294 4.4 41.568 12.621-2.779 2.895-5.442 5.905-7.874 9.147l-6.831-4.631-7.874 11.463 7.179 4.863c-2.663 5.095-4.863 10.305-6.484 15.863l-7.758-1.853-3.242 13.547 7.989 1.853c-.579 3.937-.811 7.874-.811 11.926 0 1.968.116 3.821.232 5.789l-7.41 1.737 3.242 13.547 6.137-1.505c1.505 6.716 3.821 13.2 6.831 19.336l-6.021 4.053 7.874 11.463 5.21-3.589c2.779 3.937 5.905 7.758 9.379 11.231-12.158 8.221-26.515 12.621-41.568 12.621-14.474.114-28.948-4.401-41.221-12.506zm122.039-15.747c-1.505-.695-2.779-1.158-3.937-1.737 7.874-13.431 12.042-28.715 12.042-44.694 0-9.031-1.389-17.831-3.937-26.284V311.265c27.21-10.652 55.578-15.979 84.409-15.979 22.694 0 45.62 3.589 67.967 10.537.116 0 .232.116.347.116s.232.116.347.116v212.353c-22.463 6.947-45.504 10.537-68.662 10.537-30.103-.001-59.861-6.253-88.576-18.526zm379.319 18.178c-14.01 13.547-32.42 20.957-51.873 20.957-17.484 0-34.505-6.137-47.936-17.368-17.021-14.242-26.863-35.199-26.863-57.315 0-22.231 9.842-43.073 26.863-57.315 1.274-1.042 2.547-2.084 3.821-3.01.926 11.695-1.853 28.136-3.821 39.831-.926 5.558-1.737 10.421-2.2 14.358-1.042 9.958 2.316 19.915 9.495 27.905 8.916 9.958 22.81 15.979 37.052 15.979h7.063c14.473 0 28.368-6.137 37.399-16.21 7.063-7.989 10.305-17.831 9.031-27.673-.463-4.053-1.505-8.916-2.547-14.473-2.316-11.926-5.674-28.831-4.284-40.294 3.126 2.2 6.137 4.631 8.916 7.295 14.705 14.242 22.81 33.347 22.81 53.841-.116 20.145-8.221 39.25-22.926 53.492z" fill="#000000" data-original="#000000" class=""></path></g></svg>