<svg xmlns="http://www.w3.org/2000/svg" version="1.1" xmlns:xlink="http://www.w3.org/1999/xlink" xmlns:svgjs="http://svgjs.com/svgjs" width="512" height="512" x="0" y="0" viewBox="0 0 512 512" style="enable-background:new 0 0 512 512" xml:space="preserve" class=""><g><path d="M492.294 196.46h-44.006v-94.6c0-8.378-6.816-15.195-15.194-15.195h-417.9C6.816 86.666 0 93.482 0 101.861v234.828c0 8.378 6.816 15.194 15.194 15.194h355.452v53.744c0 10.866 8.84 19.706 19.706 19.706h101.942c10.866 0 19.706-8.84 19.706-19.706V216.166c0-10.866-8.84-19.706-19.706-19.706zm-121.648 19.706V337.31H15.194a.646.646 0 0 1-.621-.621V101.861c0-.325.296-.621.621-.621h417.9c.324 0 .62.296.62.621v94.6h-43.363c-10.865-.001-19.705 8.839-19.705 19.705zm126.781 189.462a5.139 5.139 0 0 1-5.133 5.133H390.352a5.14 5.14 0 0 1-5.133-5.133V384.98h112.208zm0-35.221H385.219V216.166a5.14 5.14 0 0 1 5.133-5.133h101.942c2.783 0 5.133 2.351 5.133 5.133zm-68.348 34.75h22.853a7.287 7.287 0 1 0 0-14.574h-22.853c-4.025 0-7.287 3.262-7.287 7.287s3.262 7.287 7.287 7.287zM451.932 215.9h-22.853a7.287 7.287 0 1 0 0 14.574h22.853a7.286 7.286 0 0 0 7.287-7.287 7.288 7.288 0 0 0-7.287-7.287zm-102.46 165.528c-57.197-25.089-193.584-25.036-250.657.003-7.2 3.159-4.926 13.961 2.932 13.961.977 0 1.972-.198 2.924-.616 53.269-23.371 185.615-23.396 238.947-.003a7.284 7.284 0 0 0 9.6-3.746 7.285 7.285 0 0 0-3.746-9.599z" fill="#000000" data-original="#000000" class=""></path></g></svg>