<?xml version="1.0" encoding="UTF-8"?>
<svg width="700pt" height="700pt" version="1.1" viewBox="0 0 700 700" xmlns="http://www.w3.org/2000/svg">
 <path d="m106.52 23.426 1.9062 0.42188 138.36 42.543c27.906-12.668 58.902-19.723 91.547-19.723 118.52 0 215.3 92.984 221.37 209.99l0.30078 0.007813c25.773 0 46.668 20.891 46.668 46.664 0 24.602-19.039 44.758-43.184 46.539l-3.4844 0.12891-15.527 0.007812c-32.516 82.008-112.55 139.99-206.14 139.99-122.43 0-221.66-99.234-221.66-221.67 0-32.645 7.0547-63.641 19.723-91.547l-42.543-138.36c-2.5547-8.3125 4.4922-16.133 12.676-15.004zm53.395 434.99c4.0469 4.0508 4.5 10.336 1.3477 14.883l-1.3477 1.6172-11.668 11.664c-4.5547 4.5586-11.945 4.5586-16.5 0-4.0508-4.0508-4.5-10.336-1.3477-14.883l1.3477-1.6172 11.668-11.664c4.5547-4.5586 11.941-4.5586 16.5 0zm178.41-388.42c-109.55 0-198.33 88.785-198.33 198.33s88.785 198.34 198.33 198.34c80.434 0 149.67-47.863 180.8-116.66h-131.8c5.3828 7.543 8.4609 14.277 9.1758 20.539l0.16016 2.7891c0 25.777-20.617 32.648-50.355 22.734-6.1133-2.0352-9.418-8.6445-7.3789-14.754 2.0352-6.1133 8.6445-9.418 14.754-7.3789l6.043 1.9102 5.0234 1.3203c7.1641 1.5664 8.5781 0.023438 8.5781-3.832 0-3.2891-5.4531-11.742-16.703-23.473l-3.543-3.6562-0.65234-0.74609-0.87109-1.2891-0.72266-1.4844-0.44922-1.3477-0.34375-1.9688-0.015625-1.7969 0.070312-0.76562 0.32813-1.6211 0.61719-1.6875 0.81641-1.4883 0.86328-1.168 0.69141-0.75781c13.426-13.422 19.914-23.16 19.914-26.75 0-3.8516-1.4141-5.3945-8.5781-3.8281l-5.0234 1.3164-6.043 1.9141c-6.1094 2.0391-12.719-1.2656-14.754-7.3789-2.0391-6.1133 1.2656-12.719 7.3789-14.758 29.738-9.9141 50.355-3.0391 50.355 22.734 0 7.0469-3.1406 14.652-9.332 23.328l140.61 0.011719c1.1797-3.8398 2.2461-7.7305 3.1953-11.664l-0.3125-0.007812c-16.105 0-29.164-13.059-29.164-29.168 0-15.102 11.477-27.52 26.184-29.016l2.9805-0.14844 5.4961-0.011719c-6.043-104.11-92.367-186.66-198-186.66zm193.3 363.73 1.6172 1.3477 11.668 11.668c4.5547 4.5547 4.5547 11.945 0 16.5-4.0508 4.0508-10.34 4.5-14.887 1.3477l-1.6133-1.3477-11.668-11.668c-4.5547-4.5547-4.5547-11.941 0-16.5 4.0508-4.0469 10.336-4.5 14.883-1.3477zm-420-70 1.6172 1.3477 11.668 11.668c4.5547 4.5547 4.5547 11.945 0 16.5-4.0508 4.0508-10.34 4.5-14.887 1.3477l-1.6133-1.3477-11.668-11.668c-4.5547-4.5547-4.5547-11.941 0-16.5 4.0508-4.0469 10.336-4.5 14.883-1.3477zm448.37-83.734-0.30078 0.003906c-0.20312 3.9141-0.50781 7.7969-0.91016 11.656l1.2109 0.007813c6.4414 0 11.668 5.2227 11.668 11.664 0 5.7305-4.1289 10.492-9.5703 11.48l-2.0977 0.1875-4.9219 0.003906c-0.83984 3.9258-1.7852 7.8164-2.832 11.664h7.7539c12.887 0 23.332-10.449 23.332-23.336 0-11.965-9.0078-21.828-20.609-23.176zm-23.672-0.011719-5.4961 0.011719c-3.2188 0-5.832 2.6133-5.832 5.832 0 2.7617 1.918 5.0742 4.4961 5.6797l1.3359 0.15625h4.4766c0.45312-3.8594 0.79297-7.7539 1.0195-11.68zm-256.33-93.32c20.137 0 35.746 10.402 45.434 29.781 2.8828 5.7617 0.54688 12.77-5.2148 15.652-5.7656 2.8828-12.773 0.54688-15.652-5.2188-5.8672-11.734-13.594-16.883-24.566-16.883s-18.699 5.1484-24.566 16.883c-2.8789 5.7656-9.8867 8.1016-15.652 5.2188-5.7617-2.8828-8.0977-9.8906-5.2148-15.652 9.6875-19.379 25.297-29.781 45.434-29.781zm116.67 0c20.137 0 35.746 10.402 45.434 29.781 2.8828 5.7617 0.54688 12.77-5.2188 15.652-5.7617 2.8828-12.77 0.54688-15.652-5.2188-5.8672-11.734-13.59-16.883-24.562-16.883-10.973 0-18.699 5.1484-24.566 16.883-2.8828 5.7656-9.8906 8.1016-15.652 5.2188-5.7617-2.8828-8.0977-9.8906-5.2188-15.652 9.6914-19.379 25.297-29.781 45.438-29.781zm206.58-31.586c4.0508 4.0508 4.5 10.34 1.3477 14.887l-1.3477 1.6133-11.668 11.668c-4.5547 4.5547-11.941 4.5547-16.5 0-4.0469-4.0508-4.5-10.336-1.3477-14.883l1.3477-1.6172 11.668-11.668c4.5547-4.5547 11.945-4.5547 16.5 0zm-480.63-102.46 29.406 95.555c17.102-26.461 39.688-49.047 66.148-66.148zm247.3 32.465c4.0469 4.0508 4.5 10.34 1.3477 14.887l-1.3477 1.6133-11.668 11.668c-4.5547 4.5547-11.945 4.5547-16.5 0-4.0508-4.0508-4.5-10.336-1.3477-14.883l1.3477-1.6172 11.668-11.668c4.5547-4.5547 11.941-4.5547 16.5 0zm-118.29-71.348 1.6172 1.3477 11.668 11.668c4.5547 4.5547 4.5547 11.945 0 16.5-4.0508 4.0508-10.34 4.5-14.887 1.3477l-1.6133-1.3477-11.668-11.668c-4.5547-4.5547-4.5547-11.941 0-16.5 4.0508-4.0469 10.336-4.5 14.883-1.3477z"/>
</svg>
